<?xml version="1.0" encoding="utf-8"?>
<!-- Generator: Adobe Illustrator 24.0.0, SVG Export Plug-In . SVG Version: 6.00 Build 0)  -->
<svg version="1.1" id="Layer_1" xmlns="http://www.w3.org/2000/svg" xmlns:xlink="http://www.w3.org/1999/xlink" x="0px" y="0px"
	 viewBox="0 0 288 109" style="enable-background:new 0 0 288 109;" xml:space="preserve">
<style type="text/css">
	.st0{fill:#FFFFFF;}
	.st1{fill:#FFAC15;}
	.st2{fill:#161616;}
	.st3{font-family:'PatuaOne-Regular';}
	.st4{font-size:51.0585px;}
	.st5{fill:#070707;}
	.st6{font-size:14.6399px;}
	.st7{font-size:58.0193px;}
</style>
<title>logo</title>
<g>
	<path class="st0" d="M15.2,7.5h78.8c4.2,0,7.6,3.4,7.6,7.6v78.8c0,4.2-3.4,7.6-7.6,7.6H15.2c-4.2,0-7.6-3.4-7.6-7.6V15.1
		C7.6,10.9,10.9,7.5,15.2,7.5z"/>
	<path class="st1" d="M19.2,20.3c0.8,0.4,1.7,0.7,2.6,0.8c3.6,0.6,6.3-1.3,6.9-1.8c1.2-0.8,3.5-2.5,3.3-4.7c-0.1-2-2.3-3.2-2.6-3.3
		c-4.7-2.5-13.2,2.4-13.1,5.8C16.6,18.1,17.3,19.2,19.2,20.3z"/>
	<path class="st1" d="M94.7,7.5H27.2l0.3,0c1.2,0.2,3.4,0.6,5.2,2.5c1.6,1.7,2.4,4.1,2.2,6.5c-0.2,1.7-0.9,3.3-2,4.6
		c-1.7,2-3.8,2.5-5.6,3c-3.7,0.9-7.6,0.7-11.1-0.5c0,0.8,0.7,7.7,5.2,9.8c4.6,2.1,10.9-3.2,14.1-5.9c8.4-7,11-15.3,15.2-14.6
		c0.8,0.2,1.5,0.6,2.1,1.2c3.5,3,2.5,8.9,2.4,9.7c1-2.2,1.9-4,2.5-5.4c1.4-2.7,3.3-6.2,6-8.1c1.2-0.8,2.1-1,2.7-0.8
		c0.4,0.1,0.8,0.4,1.1,0.8c0.6,0.7,1.1,1.5,1.4,2.4c0.5,1.6,0.8,6.8,0.4,13.7c2.5-3.4,5.5-6.4,8.8-9c0.8-0.6,2-1.3,2.9-0.9
		c1.4,0.6,1.1,2.8,2.1,6.6c0.8,3.3,1.6,6.4,3.9,8.7c2.2,2.2,3.9,2,4.9,4.2c0.8,1.6,0.8,4.1-0.2,4.6c-2.2,1.2-11.9-11.8-13.7-16
		c-0.1-0.3-0.6-1.4-1.3-1.5c-1-0.2-1.9,1.1-2.8,2.3c-0.5,0.7-1.4,1.9-2.5,4.9c-0.1,0.4-0.4,1.2-1,2.8c-0.6,1.6-1.5,3.6-2.6,6.1
		c-0.2,0.5-0.8,1.6-1.8,1.9c-0.5,0.1-1,0.1-1.5-0.1C62.1,39.7,64.6,29,65,20.5c0-0.9,0.1-2.9-0.7-3.2c-0.6-0.2-1.5,0.6-1.9,0.8
		c-2.8,2.6-5.4,17.3-6.3,22.6c-2.6,8.5-4.4,10.4-5.6,10.3c-1,0-1.8-1.5-2-1.8c-1.3-2.4,0.1-5,0.2-5.3c1.2-5.1,1.7-10.3,1.6-15.5
		c-0.1-4.1-0.2-8.8-2.2-9.4c-1.8-0.5-4.4,3-5.3,4.4c-2,2.9-4.2,5.5-6.7,8c-2.1,2.1-4.3,4-6.6,5.7C10.3,44.6,9.6,21.6,9.6,21.6
		l-2-1.1v74.1c0,3.8,3,6.8,6.8,6.8h80.4c3.8,0,6.8-3,6.8-6.8V14.3C101.5,10.5,98.5,7.5,94.7,7.5z M80.2,91.8
		c-5.6,0-10.2-4.6-10.2-10.2s4.6-10.2,10.2-10.2c5.6,0,10.2,4.6,10.2,10.2l0,0C90.4,87.2,85.9,91.8,80.2,91.8z"/>
	<path class="st1" d="M13.5,12.9c1.6-1.5,4.4-3.9,8.5-5c0.7-0.2,1.4-0.3,2.1-0.4h-9.7c-3.6,0-6.6,2.8-6.8,6.4l3.6,1.4
		C11.9,14.4,12.7,13.6,13.5,12.9z"/>
	<path class="st0" d="M24.1,7.5h3.1C26.2,7.3,25.2,7.3,24.1,7.5z"/>
	<path class="st1" d="M7.6,13.9l-1.4-0.5c0,2.2-0.1,4.3-0.1,6.4l1.5,0.8v-6.2C7.6,14.1,7.6,14,7.6,13.9z"/>
	<text transform="matrix(1 0 0 1 108.3767 49.6523)" class="st2 st3 st4">Exhibit</text>
	<text transform="matrix(1 0 0 1 55.8288 116.584)" class="st5 st3 st6"> </text>
	<text transform="matrix(1 0 0 1 110.3767 101.4601)" class="st1 st3 st7">Media</text>
</g>
<path class="st1" d="M-57.3,80.3"/>
</svg>
